<?xml version="1.0" encoding="UTF-8"?>
<svg id="Layer_1" data-name="Layer 1" xmlns="http://www.w3.org/2000/svg" viewBox="0 0 153.31 264.63">
  <defs>
    <style>
      .cls-1 {
        fill: #a1a4b3;
      }

      .cls-2 {
        fill: #55718e;
      }

      .cls-3 {
        fill: #f1cc8f;
      }

      .cls-4 {
        fill: #b32a64;
      }

      .cls-5 {
        fill: #feebc9;
      }

      .cls-6 {
        fill: #57728f;
      }

      .cls-7 {
        fill: #556f8c;
      }

      .cls-8 {
        fill: #f7c8dd;
      }

      .cls-9 {
        fill: #57718e;
      }

      .cls-10 {
        fill: #e26297;
      }

      .cls-11 {
        fill: #e88eb4;
      }

      .cls-12 {
        stroke: #55728f;
        stroke-width: 3.72px;
      }

      .cls-12, .cls-13 {
        fill: none;
        stroke-linecap: round;
        stroke-linejoin: round;
      }

      .cls-13 {
        stroke: #0c0c0b;
        stroke-width: 2.71px;
      }
    </style>
  </defs>
  <g id="Generative_Object" data-name="Generative Object">
    <g>
      <path class="cls-6" d="M14.86,181.28c.07-1.49.06-2.93.09-4.42,5.39.84,16.63-1.12,21.28,0,.76.18,2.08,1.58,1.94,2.39-.56.81-1.71,2.16-2.81,2.39-4.63,1-15.29-.51-20.5-.37Z"/>
      <g>
        <path class="cls-5" d="M85.22,3.46c-.58,3.01-4.45.26-6.48,1.29,14.57,6.93,5.06,14.88,4.32,24.3-.93,11.76,8.7,20.27,22.66,19.33,1.57.67-6.19,5.91-6.91,6.26-11.31,5.57-30.26,2.97-43.6,3.31-7.13.18-14.37,1.02-21.54,1.1.64-15.04,20.84-11.57,27.28-22.46,4.72-7.98-3.41-12.63-3.19-19.88.36-11.73,15.5-19.24,27.45-13.25Z"/>
        <path class="cls-3" d="M118.75,61.93c-20.87-1.78-63.44-.95-84.88.42l.04-1.09c.11-.73-.25-1.55-.23-2.21,7.17-.09,14.41-.92,21.54-1.1,13.34-.34,32.28,2.26,43.6-3.31.72-.35,8.48-5.59,6.91-6.26-13.97.94-23.59-7.57-22.66-19.33.74-9.42,10.25-17.37-4.32-24.3,2.02-1.03,5.89,1.73,6.48-1.29,5.05,2.53,8.54,6.35,9.5,11.41,1.46,7.74-6.85,12.41-3.71,20.25,5.16,12.88,29.05,8.19,27.91,25.77l-.16,1.04Z"/>
        <path class="cls-8" d="M122.49,62.19c-.06,1.76.11,3.58.29,5.32-2.86-.06-5.81-.67-8.63-.74-24.92-.56-49.96.42-74.9,0-1.25.47-1.14,18.58-1.08,20.99l-17.01.37c-.43-2.8-.44-20.1.69-21.72,3.06-4.37,7.25-3.76,12.02-4.06,21.45-1.37,64.01-2.2,84.88-.42,1.26.11,2.48.02,3.73.26Z"/>
        <path class="cls-4" d="M131.24,67.15c.61,1.02.85,21.2.43,22.83-.83,3.21-3.45,4.64-7.02,5.36l-.03.11-.42-.04c-31.04-2.21-65.74,1.18-96.37-1.67-.88-.08-3.51.11-3.91-.07-1.24-.56-1.93-1.49-2.42-2.58,5.54-.58,11.11-.34,16.66-.37,25.53-.11,51.08.08,76.62,0,10.5-3.77,8.79-15.26,7.99-23.19,2.85.06,5.63-.25,8.46-.37Z"/>
        <path class="cls-1" d="M124.62,95.44l.03-.11c-.03.05-.05.09-.03.11.9.87,1.63,1.85,2.56,2.71.11.1.24.19.35.29-.11-.1-.23-.19-.35-.29-2.34.64-4.53.91-6.99,1.03-29.59,1.41-60.68-1.06-90.44,0-1.44-.22-1.9-1.88-1.82-2.92.04-.52,2.43-.74-.1-2.53,30.62,2.85,65.32-.54,96.37,1.67l.42.04Z"/>
        <path class="cls-11" d="M38.17,88.13c.03.9.56,1.66,0,2.58-5.55.02-11.12-.21-16.66.37-.47-1.03-.21-2.04-.35-2.95l17.01-.37c0,.12,0,.25,0,.37Z"/>
        <path class="cls-11" d="M131.24,67.15c-2.84.12-5.61.43-8.46.37-.18-1.74-.35-3.56-.29-5.32,3.26.64,7.17,2.32,8.75,4.95Z"/>
        <path class="cls-11" d="M114.14,66.78c-.83,8.38,1.07,17.7-10.14,21.35H38.17c0-.12,0-.25,0-.37-.06-2.4-.17-20.51,1.08-20.99,24.94.42,49.97-.56,74.9,0Z"/>
        <path class="cls-10" d="M122.78,67.52c.81,7.93,2.52,19.43-7.99,23.19-25.54.08-51.09-.11-76.62,0,.56-.91.03-1.67,0-2.58h65.83c11.21-3.65,9.31-12.97,10.14-21.35,2.83.06,5.77.68,8.63.74Z"/>
      </g>
    </g>
    <g>
      <path class="cls-9" d="M17.45,196.35h16.84c1.03,0,1.86.83,1.86,1.86s-.83,1.86-1.86,1.86h-16.84c-.67.01-1.43.06-2.08.17,0-1.72-.05-3.89,2.08-3.89,0,0-2.13,0,0,0Z"/>
      <line class="cls-12" x1="15.29" y1="144.09" x2="34.72" y2="144.09"/>
      <path class="cls-7" d="M14.43,122.35h19.86c2.45.06,2.46,3.66,0,3.72-.46,0-22.12,0-21.72,0,0,0,0-3.72,0-3.72h1.86Z"/>
      <path class="cls-2" d="M4.07,233.17h33.24c2.44.06,2.46,3.66,0,3.72,0,0-33.24,0-33.24,0h-1.86v-3.72h1.86Z"/>
      <path id="_PathMain_" data-name="&amp;lt;PathMain&amp;gt;" class="cls-13" d="M27.93,96.26c-25.23,15.51-14.51,43.87-13.16,65.88.3,4.83.26,9.88.17,14.73-.03,1.49-.01,2.93-.09,4.42-.82,16.93-3.35,20.52-10.1,35.71-4.09,9.21-5.03,25.28.17,34.24,6,10.33,15.86,9.49,28.06,10.46,28.03,2.23,69.85,2.37,97.56-1.18,12.64-1.62,16.05-3.63,19.6-14.8,6.16-19.42-5.02-28.08-9.76-44.55-5.57-19.35-1.38-37.86,0-57.06,1.43-19.86,4.12-29.88-12.86-45.65-.11-.1-.23-.19-.35-.29-.93-.86-1.66-1.83-2.56-2.71"/>
      <path class="cls-13" d="M23.92,93.66c-1.24-.56-1.93-1.49-2.42-2.58s-.21-2.04-.35-2.95c-.43-2.8-.44-20.1.69-21.72,3.06-4.37,7.25-3.76,12.02-4.06,21.45-1.37,64.01-2.2,84.88-.42,1.26.11,2.48.02,3.73.26,3.26.64,7.17,2.32,8.75,4.95.61,1.02.85,21.2.43,22.83-.83,3.21-3.45,4.64-7.02,5.36-.15.03-.3.05-.45.07-31.04-2.21-65.74,1.18-96.37-1.67-.88-.08-3.51.11-3.91-.07Z"/>
      <path class="cls-13" d="M33.91,61.26c.11-.73-.25-1.55-.23-2.21.64-15.04,20.84-11.57,27.28-22.46,4.72-7.98-3.41-12.63-3.19-19.88.36-11.73,15.5-19.24,27.45-13.25,5.05,2.53,8.54,6.35,9.5,11.41,1.46,7.74-6.85,12.41-3.71,20.25,5.16,12.88,29.05,8.19,27.91,25.77"/>
    </g>
  </g>
</svg>